<svg xmlns="http://www.w3.org/2000/svg" viewBox="0 0 2560 512"><g fill="#fff9"><path d="m1024 198.52-192.71-3.924-63.294-182.072-63.288 182.07L512 198.52l153.6 116.464-55.82 184.49 158.216-110.1 158.23 110.102-55.832-184.493L1024 198.52zM871.202 423.764 767.994 351.94l-103.207 71.823 36.413-120.35-100.196-75.966 125.708-2.566 41.293-118.772 41.283 118.773 125.7 2.567-100.2 75.967 36.412 120.35zM1536 198.52l-192.71-3.924-63.294-182.072-63.288 182.07L1024 198.52l153.6 116.464-55.82 184.49 158.216-110.1 158.23 110.102-55.832-184.493L1536 198.52zm-152.798 225.244-103.208-71.824-103.207 71.823 36.413-120.35-100.196-75.966 125.708-2.566 41.293-118.772 41.283 118.773 125.7 2.567-100.2 75.967 36.412 120.35zM2048 198.52l-192.71-3.924-63.294-182.072-63.288 182.07L1536 198.52l153.6 116.464-55.82 184.49 158.216-110.1 158.23 110.102-55.832-184.493L2048 198.52zm-152.798 225.244-103.208-71.824-103.207 71.823 36.413-120.35-100.196-75.966 125.708-2.566 41.293-118.772 41.283 118.773 125.7 2.567-100.2 75.967 36.412 120.35zM2560 198.52l-192.71-3.924-63.294-182.072-63.288 182.07L2048 198.52l153.6 116.464-55.82 184.49 158.216-110.1 158.23 110.102-55.832-184.493L2560 198.52zm-152.798 225.244-103.208-71.824-103.207 71.823 36.413-120.35-100.196-75.966 125.708-2.566 41.293-118.772 41.283 118.773 125.7 2.567-100.2 75.967 36.412 120.35z"/></g><path fill="#fff9" d="m512 198.52-192.71-3.924-63.294-182.072-63.288 182.07L0 198.52l153.6 116.464-55.82 184.49 158.216-110.1 158.23 110.102-55.832-184.493ZM359.202 423.764 255.994 351.94l-103.207 71.823 36.413-120.35-100.196-75.966 125.708-2.566 41.293-118.772 41.283 118.773 125.7 2.567-100.2 75.967 36.412 120.35z"/></svg>